<svg width="23" height="23" viewBox="0 0 23 23" fill="none" xmlns="http://www.w3.org/2000/svg">
<g id="Group 31">
<rect id="Rectangle 9" width="23" height="23" rx="5" fill="#A5A5A5"/>
<g id="Group 30">
<g id="chef_hat">
<mask id="mask0_129_1540" style="mask-type:alpha" maskUnits="userSpaceOnUse" x="4" y="4" width="15" height="15">
<rect id="Bounding box" x="4.59998" y="4.6001" width="13.8" height="13.8" fill="#D9D9D9"/>
</mask>
<g mask="url(#mask0_129_1540)">
<path id="chef_hat_2" d="M9.77498 12.65H10.925V9.775H9.77498V12.65ZM7.47498 13.8V11.7875C7.03414 11.5671 6.68435 11.2484 6.4256 10.8316C6.16685 10.4147 6.03748 9.96187 6.03748 9.47312C6.03748 8.75437 6.28425 8.14583 6.77779 7.6475C7.27133 7.14917 7.87748 6.9 8.59623 6.9C8.71123 6.9 8.82862 6.90958 8.94841 6.92875C9.0682 6.94792 9.1856 6.97187 9.3006 7.00062C9.54018 6.60771 9.85164 6.30104 10.235 6.08062C10.6183 5.86021 11.04 5.75 11.5 5.75C11.96 5.75 12.3816 5.86021 12.765 6.08062C13.1483 6.30104 13.4598 6.60771 13.6994 7.00062C13.8144 6.97187 13.9294 6.94792 14.0444 6.92875C14.1594 6.90958 14.2791 6.9 14.4037 6.9C15.1225 6.9 15.7286 7.14917 16.2222 7.6475C16.7157 8.14583 16.9625 8.75437 16.9625 9.47312C16.9625 9.96187 16.8331 10.4147 16.5744 10.8316C16.3156 11.2484 15.9658 11.5671 15.525 11.7875V13.8H7.47498ZM12.075 12.65H13.225V9.775H12.075V12.65ZM7.47498 17.25V14.95H15.525V17.25H7.47498Z" fill="white"/>
</g>
</g>
</g>
</g>
</svg>
