<svg width="46" height="46" viewBox="0 0 46 46" fill="none" xmlns="http://www.w3.org/2000/svg">
<g clip-path="url(#clip0_184_1785)">
<rect width="46" height="46" rx="23" fill="url(#paint0_linear_184_1785)"/>
<path d="M14.5663 32.167C17.3774 34.2114 20.1886 35.847 22.9997 35.847C25.8107 35.847 28.622 34.2114 31.433 32.167C29.1159 31.4616 27.9404 30.4087 27.9063 29.0083C27.9063 28.7587 27.9082 28.4042 27.9099 27.7385C27.9099 27.6328 27.9101 27.5246 27.9106 27.4138C27.9152 25.629 27.9227 23.2738 27.9333 20.8818C30.1309 18.0333 29.3236 14.6939 28.635 14.7771C27.7907 14.8799 20.4763 7.93877 19.0733 7.58288C17.6703 7.22699 14.1063 8.37592 13.493 11.5768C12.8797 14.7776 12.6233 22.8457 14.9497 26.0668C15.6117 26.9834 16.6543 27.3419 18.0777 27.1424C18.0797 27.8123 18.0837 28.1883 18.093 28.947C18.0748 30.4111 16.8993 31.4624 14.5663 32.167Z" fill="url(#paint1_linear_184_1785)"/>
<path d="M18.0928 27.14C21.4661 26.7567 23.6128 25.3 23.6128 25.3C23.6128 25.3 21.1594 28.3667 18.0928 28.98V27.14Z" fill="#FC9F6A"/>
<path d="M29.0565 20.93C30.113 18.3893 34.3465 13.2148 30.6972 9.99476C29.4705 4.01476 22.6932 4.6767 18.1698 6.0567C15.1297 6.98421 12.8338 8.8167 12.3432 7.4367C9.2765 9.99476 10.8123 12.4967 12.8338 13.2148C14.6686 13.8664 17.7712 14.5181 23.0468 13.9048C23.9891 13.7951 23.7918 16.6813 24.2954 16.9934C25.0508 17.4615 25.6372 14.5181 27.7084 15.4019C29.7796 16.2857 28.5505 20.3837 26.3272 20.3837C25.5605 20.3837 25.1772 22.4916 27.2472 23.4882C28.7498 24.2267 28.37 22.581 29.0565 20.93Z" fill="url(#paint2_linear_184_1785)"/>
<path d="M39.0996 36.8473C40.5593 39.8153 41.3996 46.6606 41.3996 46.6606H4.59961C4.59961 46.6606 5.44018 39.8146 6.89961 36.8473C8.35904 33.88 16.8816 31.1278 16.8816 31.1278C21.5909 32.9667 24.4728 32.9667 29.1132 31.1267C29.1132 31.1267 37.6399 33.8792 39.0996 36.8473Z" fill="url(#paint3_linear_184_1785)"/>
<path d="M24.0725 32.2001L24.8392 46.3068H21.1592L21.9258 32.2001C21.9258 32.2001 22.6415 31.4335 22.9992 31.4335C23.3569 31.4335 24.0725 32.2001 24.0725 32.2001Z" fill="url(#paint4_linear_184_1785)"/>
<path d="M24.2471 35.0662L21.8359 33.6731L21.9258 32.2001C22.4029 31.689 22.7606 31.4335 22.9991 31.4335C23.2376 31.4335 23.5954 31.689 24.0725 32.2001L24.2473 35.0662H24.2471Z" fill="#645050"/>
<path d="M22.9996 31.4322L21.4662 34.1934L16.7129 31.2801L18.0929 29.2867L22.9996 31.0993L27.9062 29.2867L29.2862 31.2801L24.5329 34.1934L22.9996 31.4322Z" fill="white"/>
</g>
<defs>
<linearGradient id="paint0_linear_184_1785" x1="23" y1="0" x2="23" y2="46" gradientUnits="userSpaceOnUse">
<stop stop-color="#806A6A"/>
<stop offset="1" stop-color="#665654"/>
</linearGradient>
<linearGradient id="paint1_linear_184_1785" x1="22.2517" y1="7.52063" x2="22.2517" y2="35.847" gradientUnits="userSpaceOnUse">
<stop stop-color="#F7B186"/>
<stop offset="1" stop-color="#FFC299"/>
</linearGradient>
<linearGradient id="paint2_linear_184_1785" x1="21.3807" y1="5.11951" x2="21.3807" y2="23.6698" gradientUnits="userSpaceOnUse">
<stop stop-color="#1D0024"/>
<stop offset="1" stop-color="#100014"/>
</linearGradient>
<linearGradient id="paint3_linear_184_1785" x1="22.9996" y1="31.1267" x2="22.9996" y2="46.6606" gradientUnits="userSpaceOnUse">
<stop stop-color="#1D0024"/>
<stop offset="1" stop-color="#100014"/>
</linearGradient>
<linearGradient id="paint4_linear_184_1785" x1="22.9992" y1="31.4335" x2="22.9992" y2="46.3068" gradientUnits="userSpaceOnUse">
<stop stop-color="#806A6A"/>
<stop offset="1" stop-color="#665654"/>
</linearGradient>
<clipPath id="clip0_184_1785">
<rect width="46" height="46" rx="23" fill="white"/>
</clipPath>
</defs>
</svg>
