<svg width="18" height="18" viewBox="0 0 18 18" fill="none" xmlns="http://www.w3.org/2000/svg">
<mask id="mask0_536_5424" style="mask-type:alpha" maskUnits="userSpaceOnUse" x="0" y="0" width="18" height="18">
<rect width="18" height="18" fill="#D9D9D9"/>
</mask>
<g mask="url(#mask0_536_5424)">
<path d="M8.99922 16.5002C8.06172 16.5002 7.18359 16.3221 6.36484 15.9658C5.54609 15.6096 4.83359 15.1283 4.22734 14.5221C3.62109 13.9158 3.13984 13.2033 2.78359 12.3846C2.42734 11.5658 2.24922 10.6877 2.24922 9.7502C2.24922 8.8127 2.42734 7.93457 2.78359 7.11582C3.13984 6.29707 3.62109 5.58457 4.22734 4.97832C4.83359 4.37207 5.54609 3.89082 6.36484 3.53457C7.18359 3.17832 8.06172 3.0002 8.99922 3.0002C9.93672 3.0002 10.8148 3.17832 11.6336 3.53457C12.4523 3.89082 13.1648 4.37207 13.7711 4.97832C14.3773 5.58457 14.8586 6.29707 15.2148 7.11582C15.5711 7.93457 15.7492 8.8127 15.7492 9.7502C15.7492 10.6877 15.5711 11.5658 15.2148 12.3846C14.8586 13.2033 14.3773 13.9158 13.7711 14.5221C13.1648 15.1283 12.4523 15.6096 11.6336 15.9658C10.8148 16.3221 9.93672 16.5002 8.99922 16.5002ZM11.0992 12.9002L12.1492 11.8502L9.74922 9.4502V6.0002H8.24922V10.0502L11.0992 12.9002ZM4.19922 1.7627L5.24922 2.8127L2.06172 6.0002L1.01172 4.9502L4.19922 1.7627ZM13.7992 1.7627L16.9867 4.9502L15.9367 6.0002L12.7492 2.8127L13.7992 1.7627Z" fill="#676767"/>
</g>
</svg>
