<svg width="20" height="20" viewBox="0 0 20 20" fill="none" xmlns="http://www.w3.org/2000/svg">
<g id="siren">
<mask id="mask0_164_5162" style="mask-type:alpha" maskUnits="userSpaceOnUse" x="0" y="0" width="20" height="20">
<rect id="Bounding box" width="20" height="20" fill="#D9D9D9"/>
</mask>
<g mask="url(#mask0_164_5162)">
<path id="siren_2" d="M3.84625 15.8333H16.1538C16.3033 15.8333 16.4263 15.7852 16.5225 15.6891C16.6186 15.5928 16.6667 15.4699 16.6667 15.3203V14.0545C16.6667 13.9049 16.6186 13.782 16.5225 13.6858C16.4263 13.5896 16.3033 13.5416 16.1538 13.5416H3.84625C3.69667 13.5416 3.57375 13.5896 3.4775 13.6858C3.38139 13.782 3.33333 13.9049 3.33333 14.0545V15.3203C3.33333 15.4699 3.38139 15.5928 3.4775 15.6891C3.57375 15.7852 3.69667 15.8333 3.84625 15.8333ZM7.2275 10.7851H8.06083V8.44534C8.06083 7.91659 8.25069 7.46388 8.63042 7.08721C9.01028 6.71068 9.46681 6.52242 10 6.52242V5.68909C9.23292 5.68909 8.5791 5.95672 8.03854 6.492C7.49785 7.02714 7.2275 7.67825 7.2275 8.44534V10.7851ZM5.68917 12.7083H14.3108V8.44534C14.3108 7.24992 13.8903 6.23791 13.0492 5.40929C12.2079 4.58082 11.1906 4.16659 9.99708 4.16659C8.80347 4.16659 7.78708 4.58082 6.94792 5.40929C6.10875 6.23791 5.68917 7.24992 5.68917 8.44534V12.7083ZM3.84625 16.6666C3.47597 16.6666 3.15903 16.5348 2.89542 16.2712C2.63181 16.0076 2.5 15.6906 2.5 15.3203V14.0545C2.5 13.6842 2.63181 13.3673 2.89542 13.1037C3.15903 12.8401 3.47597 12.7083 3.84625 12.7083H4.85583V8.44534C4.85583 7.02131 5.35486 5.81325 6.35292 4.82117C7.35111 3.82922 8.56667 3.33325 9.99958 3.33325C11.4325 3.33325 12.6482 3.82922 13.6467 4.82117C14.645 5.81325 15.1442 7.02131 15.1442 8.44534V12.7083H16.1538C16.524 12.7083 16.841 12.8401 17.1046 13.1037C17.3682 13.3673 17.5 13.6842 17.5 14.0545V15.3203C17.5 15.6906 17.3682 16.0076 17.1046 16.2712C16.841 16.5348 16.524 16.6666 16.1538 16.6666H3.84625Z" fill="#FF9191"/>
</g>
</g>
</svg>
