<svg width="24" height="24" viewBox="0 0 24 24" fill="none" xmlns="http://www.w3.org/2000/svg">
<mask id="mask0_594_5482" style="mask-type:alpha" maskUnits="userSpaceOnUse" x="0" y="0" width="24" height="24">
<rect x="0.5" y="0.5" width="23" height="23" fill="#D9D9D9" stroke="#B6C2FF"/>
</mask>
<g mask="url(#mask0_594_5482)">
<path d="M14.1641 12.5557V12.5566C14.2485 12.6918 14.3671 12.8015 14.5186 12.8857C14.6704 12.9701 14.8311 13.0127 15 13.0127H20.3506C19.7189 13.9069 18.8493 14.9085 17.7412 16.0166C16.9038 16.854 15.888 17.8176 14.6943 18.9082L13.4414 20.041L12 21.332L10.5586 20.041C8.80879 18.4745 7.37521 17.133 6.25879 16.0166C5.15069 14.9085 4.28107 13.9069 3.64941 13.0127H8.41895L10.1396 15.5566C10.2409 15.7084 10.3718 15.8224 10.5322 15.8984C10.6923 15.9742 10.8648 16.0127 11.0498 16.0127C11.269 16.0127 11.4594 15.9491 11.6201 15.8223C11.7403 15.7274 11.8344 15.6111 11.9023 15.4736L11.9619 15.3291L13.3037 11.2764L14.1641 12.5557ZM16.5 3.0127C17.9658 3.0127 19.2046 3.47286 20.2168 4.39355L20.416 4.58398C21.4635 5.6315 21.9873 6.93645 21.9873 8.5C21.9873 8.93269 21.9542 9.34877 21.8877 9.74805C21.8216 10.1445 21.6978 10.5576 21.5166 10.9873H15.5811L13.8604 8.44336C13.7591 8.29156 13.6282 8.17756 13.4678 8.10156C13.3077 8.02576 13.1352 7.98733 12.9502 7.9873C12.731 7.9873 12.5406 8.05089 12.3799 8.17773C12.2597 8.27263 12.1656 8.38892 12.0977 8.52637L12.0381 8.6709L10.6953 12.6963L9.86035 11.4434C9.7758 11.3081 9.65749 11.1985 9.50586 11.1143C9.3542 11.03 9.19407 10.9874 9.02539 10.9873H2.4834C2.30219 10.5576 2.17839 10.1445 2.1123 9.74805C2.04576 9.34877 2.0127 8.93269 2.0127 8.5C2.0127 7.03415 2.47286 5.79544 3.39355 4.7832L3.58398 4.58398C4.6315 3.53647 5.93645 3.0127 7.5 3.0127C8.36484 3.0127 9.18806 3.19563 9.96973 3.56152C10.7514 3.92742 11.4247 4.44311 11.9902 5.1084L12 5.11914L12.0098 5.1084C12.5753 4.44311 13.2486 3.92742 14.0303 3.56152C14.8119 3.19563 15.6352 3.0127 16.5 3.0127Z" fill="white" stroke="#B6C2FF" stroke-width="0.025"/>
</g>
</svg>
