<svg width="72" height="72" viewBox="0 0 72 72" fill="none" xmlns="http://www.w3.org/2000/svg">
<g id="Group 14">
<g id="Group 13">
<g id="add_a_photo">
<mask id="mask0_22_1424" style="mask-type:alpha" maskUnits="userSpaceOnUse" x="0" y="0" width="72" height="72">
<rect id="Bounding box" width="72" height="72" fill="#D9D9D9"/>
</mask>
<g mask="url(#mask0_22_1424)">
<path id="add_a_photo_2" d="M59.55 19.4999V12.4499H52.425V7.04993H59.55V-0.0750732H64.9875V7.04993H72V12.4499H64.9875V19.4999H59.55ZM32.982 52.4249C36.744 52.4249 39.8875 51.1684 42.4125 48.6554C44.9375 46.1419 46.2 43.0169 46.2 39.2804C46.2 35.4934 44.9435 32.3374 42.4305 29.8124C39.917 27.2874 36.792 26.0249 33.0555 26.0249C29.2685 26.0249 26.1125 27.2794 23.5875 29.7884C21.0625 32.2974 19.8 35.4369 19.8 39.2069C19.8 42.9689 21.0545 46.1124 23.5635 48.6374C26.0725 51.1624 29.212 52.4249 32.982 52.4249ZM33 46.4249C30.9 46.4249 29.175 45.7374 27.825 44.3624C26.475 42.9874 25.8 41.2749 25.8 39.2249C25.8 37.1249 26.475 35.3874 27.825 34.0124C29.175 32.6374 30.9 31.9499 33 31.9499C35.05 31.9499 36.775 32.6374 38.175 34.0124C39.575 35.3874 40.275 37.1249 40.275 39.2249C40.275 41.2749 39.575 42.9874 38.175 44.3624C36.775 45.7374 35.05 46.4249 33 46.4249ZM8.175 64.8749C6.2225 64.8749 4.55925 64.1882 3.18525 62.8147C1.81175 61.4407 1.125 59.7774 1.125 57.8249V20.6999C1.125 18.7769 1.81175 17.1087 3.18525 15.6952C4.55925 14.2817 6.2225 13.5749 8.175 13.5749H17.55L23.775 7.04993H47.925V16.9499H55.05V23.9999H64.95V57.8249C64.95 59.7774 64.2433 61.4407 62.8298 62.8147C61.4163 64.1882 59.748 64.8749 57.825 64.8749H8.175Z" fill="#AAAAAA"/>
</g>
</g>
</g>
</g>
</svg>
