<svg width="19" height="19" viewBox="0 0 19 19" fill="none" xmlns="http://www.w3.org/2000/svg">
<g id="chat_bubble">
<mask id="mask0_70_524" style="mask-type:alpha" maskUnits="userSpaceOnUse" x="0" y="0" width="19" height="19">
<rect id="Bounding box" x="0.979553" y="0.5" width="18" height="18" fill="#D9D9D9"/>
</mask>
<g mask="url(#mask0_70_524)">
<path id="chat_bubble_2" d="M2.47955 17V3.5C2.47955 3.0875 2.62643 2.73437 2.92018 2.44062C3.21393 2.14688 3.56705 2 3.97955 2H15.9796C16.3921 2 16.7452 2.14688 17.0389 2.44062C17.3327 2.73437 17.4796 3.0875 17.4796 3.5V12.5C17.4796 12.9125 17.3327 13.2656 17.0389 13.5594C16.7452 13.8531 16.3921 14 15.9796 14H5.47955L2.47955 17ZM4.84205 12.5H15.9796V3.5H3.97955V13.3437L4.84205 12.5Z" fill="#1C1B1F"/>
</g>
</g>
</svg>
