<svg width="20" height="20" viewBox="0 0 20 20" fill="none" xmlns="http://www.w3.org/2000/svg">
<mask id="mask0_594_5491" style="mask-type:alpha" maskUnits="userSpaceOnUse" x="0" y="0" width="20" height="20">
<rect width="20" height="20" fill="#D9D9D9"/>
</mask>
<g mask="url(#mask0_594_5491)">
<path d="M7.0835 11.2498H8.29183L11.5418 7.979L10.3543 6.7915L7.0835 10.0415V11.2498ZM12.146 7.37484L12.7293 6.7915C12.7988 6.72206 12.8335 6.64914 12.8335 6.57275C12.8335 6.49637 12.7988 6.42345 12.7293 6.354L11.9793 5.604C11.9099 5.53456 11.837 5.49984 11.7606 5.49984C11.6842 5.49984 11.6113 5.53456 11.5418 5.604L10.9585 6.18734L12.146 7.37484ZM10.0002 18.3332C7.76405 16.4304 6.09391 14.663 4.98975 13.0311C3.88558 11.3991 3.3335 9.88873 3.3335 8.49984C3.3335 6.4165 4.00363 4.75678 5.34391 3.52067C6.68419 2.28456 8.23627 1.6665 10.0002 1.6665C11.7641 1.6665 13.3161 2.28456 14.6564 3.52067C15.9967 4.75678 16.6668 6.4165 16.6668 8.49984C16.6668 9.88873 16.1147 11.3991 15.0106 13.0311C13.9064 14.663 12.2363 16.4304 10.0002 18.3332Z" fill="#148119"/>
</g>
</svg>
