<svg width="19" height="19" viewBox="0 0 19 19" fill="none" xmlns="http://www.w3.org/2000/svg">
<g id="waving_hand">
<mask id="mask0_70_519" style="mask-type:alpha" maskUnits="userSpaceOnUse" x="0" y="0" width="19" height="19">
<rect id="Bounding box" x="0.979553" y="0.5" width="18" height="18" fill="#D9D9D9"/>
</mask>
<g mask="url(#mask0_70_519)">
<path id="waving_hand_2" d="M9.04205 9.12495L14.3483 3.8187C14.4983 3.6687 14.6733 3.5937 14.8733 3.5937C15.0733 3.5937 15.2483 3.6687 15.3983 3.8187C15.5483 3.9687 15.6233 4.1437 15.6233 4.3437C15.6233 4.5437 15.5483 4.7187 15.3983 4.8687L10.1108 10.175L9.04205 9.12495ZM10.8983 10.9812L15.6608 6.19995C15.8108 6.04995 15.9889 5.97495 16.1952 5.97495C16.4014 5.97495 16.5795 6.04995 16.7295 6.19995C16.8795 6.34995 16.9546 6.52808 16.9546 6.73433C16.9546 6.94058 16.8795 7.1187 16.7295 7.2687L11.9671 12.0312L10.8983 10.9812ZM4.9358 14.5437C3.7983 13.4062 3.22955 12.0375 3.22955 10.4375C3.22955 8.83745 3.7983 7.4687 4.9358 6.3312L7.1858 4.0812L8.29205 5.18745C8.37955 5.27495 8.45455 5.36558 8.51705 5.45933C8.57955 5.55308 8.64205 5.64995 8.70455 5.74995L11.4796 2.9562C11.6296 2.8062 11.8077 2.7312 12.0139 2.7312C12.2202 2.7312 12.3983 2.8062 12.5483 2.9562C12.6983 3.1062 12.7733 3.28433 12.7733 3.49058C12.7733 3.69683 12.6983 3.87495 12.5483 4.02495L9.30455 7.2687L7.7108 8.8437L8.06705 9.19995C8.64205 9.77495 8.91705 10.4625 8.89205 11.2625C8.86705 12.0625 8.5608 12.7562 7.9733 13.3437L6.90455 12.2937C7.19205 12.0062 7.35143 11.6656 7.38268 11.2718C7.41393 10.8781 7.2858 10.5375 6.9983 10.25L6.11705 9.38745C5.96705 9.23745 5.89205 9.05933 5.89205 8.85308C5.89205 8.64683 5.96705 8.4687 6.11705 8.3187L7.1858 7.2687C7.3358 7.1187 7.4108 6.94058 7.4108 6.73433C7.4108 6.52808 7.3358 6.34995 7.1858 6.19995L5.9858 7.39995C5.1358 8.24995 4.7108 9.26558 4.7108 10.4468C4.7108 11.6281 5.1358 12.6437 5.9858 13.4937C6.8358 14.3437 7.85455 14.7687 9.04205 14.7687C10.2296 14.7687 11.2483 14.3437 12.0983 13.4937L16.5796 8.9937C16.7296 8.8437 16.9077 8.7687 17.1139 8.7687C17.3202 8.7687 17.4983 8.8437 17.6483 8.9937C17.7983 9.1437 17.8733 9.32183 17.8733 9.52808C17.8733 9.73433 17.7983 9.91245 17.6483 10.0625L13.1483 14.5437C12.0108 15.6812 10.6421 16.25 9.04205 16.25C7.44205 16.25 6.0733 15.6812 4.9358 14.5437ZM13.7295 17.7687V16.25C14.5545 16.25 15.2608 15.9562 15.8483 15.3687C16.4358 14.7812 16.7295 14.075 16.7295 13.25H18.2483C18.2483 14.5 17.8077 15.5656 16.9264 16.4468C16.0452 17.3281 14.9795 17.7687 13.7295 17.7687ZM1.7108 5.74995C1.7108 4.49995 2.15143 3.43433 3.03268 2.55308C3.91393 1.67183 4.97955 1.2312 6.22955 1.2312V2.74995C5.40455 2.74995 4.6983 3.0437 4.1108 3.6312C3.5233 4.2187 3.22955 4.92495 3.22955 5.74995H1.7108Z" fill="#1C1B1F"/>
</g>
</g>
</svg>
