<svg width="24" height="24" viewBox="0 0 24 24" fill="none" xmlns="http://www.w3.org/2000/svg">
<g opacity="0.8">
<mask id="mask0_465_4737" style="mask-type:alpha" maskUnits="userSpaceOnUse" x="0" y="0" width="24" height="24">
<rect width="24" height="24" fill="#D9D9D9"/>
</mask>
<g mask="url(#mask0_465_4737)">
<path d="M5 22.0002C4.45 22.0002 3.97917 21.8044 3.5875 21.4127C3.19583 21.0211 3 20.5502 3 20.0002V6.00024C3 5.45024 3.19583 4.97941 3.5875 4.58774C3.97917 4.19608 4.45 4.00024 5 4.00024H6V2.00024H8V4.00024H16V2.00024H18V4.00024H19C19.55 4.00024 20.0208 4.19608 20.4125 4.58774C20.8042 4.97941 21 5.45024 21 6.00024V20.0002C21 20.5502 20.8042 21.0211 20.4125 21.4127C20.0208 21.8044 19.55 22.0002 19 22.0002H5ZM5 20.0002H19V10.0002H5V20.0002ZM5 8.00025H19V6.00024H5V8.00025Z" fill="#B2B3B4"/>
</g>
</g>
</svg>
