<svg width="20" height="20" viewBox="0 0 20 20" fill="none" xmlns="http://www.w3.org/2000/svg">
<mask id="mask0_386_6259" style="mask-type:alpha" maskUnits="userSpaceOnUse" x="0" y="0" width="20" height="20">
<rect width="20" height="20" fill="#D9D9D9"/>
</mask>
<g mask="url(#mask0_386_6259)">
<path d="M14.7755 16.5833H5.35567V7.41666L11.0511 1.75333L11.3811 1.87499C11.6205 2.04485 11.7966 2.25666 11.9092 2.51041C12.022 2.76416 12.0437 3.02353 11.9742 3.28853V3.20833L11.2144 7.41666H17.2434C17.612 7.41666 17.9274 7.54784 18.1896 7.8102C18.452 8.07242 18.5832 8.38784 18.5832 8.75645V9.62333C18.5832 9.72374 18.5741 9.81374 18.5559 9.89333C18.5377 9.97291 18.5105 10.056 18.4742 10.1427L16.1071 15.7148C15.9875 15.9819 15.8081 16.1934 15.5688 16.3494C15.3295 16.5053 15.065 16.5833 14.7755 16.5833ZM4.27234 7.41666V16.5833H1.4165V7.41666H4.27234Z" fill="#013F9F"/>
</g>
</svg>
