<svg width="20" height="20" viewBox="0 0 20 20" fill="none" xmlns="http://www.w3.org/2000/svg">
<mask id="mask0_129_989" style="mask-type:alpha" maskUnits="userSpaceOnUse" x="0" y="0" width="20" height="20">
<rect width="20" height="20" fill="#D9D9D9"/>
</mask>
<g mask="url(#mask0_129_989)">
<path d="M10 9.99992C9.08337 9.99992 8.29865 9.67353 7.64587 9.02075C6.9931 8.36797 6.66671 7.58325 6.66671 6.66659C6.66671 5.74992 6.9931 4.9652 7.64587 4.31242C8.29865 3.65964 9.08337 3.33325 10 3.33325C10.9167 3.33325 11.7014 3.65964 12.3542 4.31242C13.007 4.9652 13.3334 5.74992 13.3334 6.66659C13.3334 7.58325 13.007 8.36797 12.3542 9.02075C11.7014 9.67353 10.9167 9.99992 10 9.99992ZM3.33337 16.6666V14.3333C3.33337 13.861 3.4549 13.427 3.69796 13.0312C3.94101 12.6353 4.26393 12.3333 4.66671 12.1249C5.52782 11.6944 6.40282 11.3714 7.29171 11.1562C8.1806 10.9409 9.08337 10.8333 10 10.8333C10.9167 10.8333 11.8195 10.9409 12.7084 11.1562C13.5973 11.3714 14.4723 11.6944 15.3334 12.1249C15.7362 12.3333 16.0591 12.6353 16.3021 13.0312C16.5452 13.427 16.6667 13.861 16.6667 14.3333V16.6666H3.33337ZM5.00004 14.9999H15V14.3333C15 14.1805 14.9618 14.0416 14.8855 13.9166C14.8091 13.7916 14.7084 13.6944 14.5834 13.6249C13.8334 13.2499 13.0764 12.9687 12.3125 12.7812C11.5487 12.5937 10.7778 12.4999 10 12.4999C9.22226 12.4999 8.45143 12.5937 7.68754 12.7812C6.92365 12.9687 6.16671 13.2499 5.41671 13.6249C5.29171 13.6944 5.19101 13.7916 5.11462 13.9166C5.03824 14.0416 5.00004 14.1805 5.00004 14.3333V14.9999ZM10 8.33325C10.4584 8.33325 10.8507 8.17006 11.1771 7.84367C11.5035 7.51728 11.6667 7.12492 11.6667 6.66659C11.6667 6.20825 11.5035 5.81589 11.1771 5.4895C10.8507 5.16311 10.4584 4.99992 10 4.99992C9.54171 4.99992 9.14935 5.16311 8.82296 5.4895C8.49657 5.81589 8.33337 6.20825 8.33337 6.66659C8.33337 7.12492 8.49657 7.51728 8.82296 7.84367C9.14935 8.17006 9.54171 8.33325 10 8.33325Z" fill="#595959"/>
</g>
</svg>
