<svg width="18" height="19" viewBox="0 0 18 19" fill="none" xmlns="http://www.w3.org/2000/svg">
<g id="waving_hand">
<mask id="mask0_129_1003" style="mask-type:alpha" maskUnits="userSpaceOnUse" x="0" y="0" width="18" height="19">
<rect id="Bounding box" y="0.5" width="18" height="18" fill="#D9D9D9"/>
</mask>
<g mask="url(#mask0_129_1003)">
<path id="waving_hand_2" d="M0.731201 5.7502C0.731201 4.5002 1.17183 3.43457 2.05308 2.55332C2.93433 1.67207 3.99995 1.23145 5.24995 1.23145V2.7502C4.42495 2.7502 3.7187 3.04395 3.1312 3.63145C2.5437 4.21895 2.24995 4.9252 2.24995 5.7502H0.731201ZM3.97495 14.5439C2.83745 13.4064 2.2687 12.0377 2.2687 10.4377C2.2687 8.8377 2.83745 7.46895 3.97495 6.33145L5.28745 5.0002L5.51245 5.2252C5.87495 5.5877 6.0562 6.02832 6.0562 6.54707C6.0562 7.06582 5.87495 7.50645 5.51245 7.86895L5.24995 8.13144C5.09995 8.28145 5.02495 8.45957 5.02495 8.66582C5.02495 8.87207 5.09995 9.0502 5.24995 9.2002L5.92495 9.8752C6.24995 10.2002 6.41245 10.5939 6.41245 11.0564C6.41245 11.5189 6.24995 11.9127 5.92495 12.2377L6.7312 13.0439C7.2812 12.4939 7.5562 11.8346 7.5562 11.0658C7.5562 10.2971 7.27495 9.63144 6.71245 9.06894L6.29995 8.65645C6.62495 8.33145 6.8562 7.96582 6.9937 7.55957C7.1312 7.15332 7.18745 6.7377 7.16245 6.3127L10.5187 2.95645C10.6687 2.80645 10.8468 2.73145 11.0531 2.73145C11.2593 2.73145 11.4375 2.80645 11.5875 2.95645C11.7375 3.10645 11.8125 3.28457 11.8125 3.49082C11.8125 3.69707 11.7375 3.8752 11.5875 4.0252L8.0812 7.53145L8.8687 8.31894L13.3875 3.81895C13.5375 3.66895 13.7125 3.59395 13.9125 3.59395C14.1125 3.59395 14.2875 3.66895 14.4375 3.81895C14.5875 3.96895 14.6625 4.14395 14.6625 4.34395C14.6625 4.54395 14.5875 4.71895 14.4375 4.86895L9.93745 9.3877L10.725 10.1752L14.7 6.2002C14.85 6.0502 15.0281 5.9752 15.2343 5.9752C15.4406 5.9752 15.6187 6.0502 15.7687 6.2002C15.9187 6.3502 15.9937 6.52832 15.9937 6.73457C15.9937 6.94082 15.9187 7.11895 15.7687 7.26895L11.7937 11.2439L12.5812 12.0314L15.6187 8.99395C15.7687 8.84395 15.9468 8.76895 16.1531 8.76895C16.3593 8.76895 16.5375 8.84395 16.6875 8.99395C16.8375 9.14395 16.9125 9.32207 16.9125 9.52832C16.9125 9.73457 16.8375 9.9127 16.6875 10.0627L12.1875 14.5439C11.05 15.6814 9.6812 16.2502 8.0812 16.2502C6.4812 16.2502 5.11245 15.6814 3.97495 14.5439ZM12.75 17.7689V16.2502C13.575 16.2502 14.2812 15.9564 14.8687 15.3689C15.4562 14.7814 15.75 14.0752 15.75 13.2502H17.2687C17.2687 14.5002 16.8281 15.5658 15.9468 16.4471C15.0656 17.3283 14 17.7689 12.75 17.7689Z" fill="#FF0000"/>
</g>
</g>
</svg>
