<svg width="16" height="16" viewBox="0 0 16 16" fill="none" xmlns="http://www.w3.org/2000/svg">
<g id="Outline / Messages, Conversation / Pen" clip-path="url(#clip0_164_5166)">
<path id="Vector" fill-rule="evenodd" clip-rule="evenodd" d="M9.83768 1.74755C11.0567 0.528486 13.0332 0.528486 14.2523 1.74755C15.4714 2.96662 15.4714 4.94311 14.2523 6.16218L7.92877 12.4857C7.56749 12.847 7.35481 13.0597 7.11822 13.2442C6.83935 13.4618 6.53762 13.6482 6.21836 13.8004C5.94749 13.9295 5.66215 14.0246 5.17741 14.1861L2.95666 14.9264L2.42194 15.1046C1.98823 15.2492 1.51007 15.1363 1.1868 14.813C0.863532 14.4898 0.750653 14.0116 0.895223 13.5779L1.81371 10.8225C1.97527 10.3377 2.07037 10.0524 2.19946 9.78149C2.35162 9.46223 2.5381 9.1605 2.75561 8.88163C2.94015 8.64503 3.15284 8.43235 3.51416 8.07106L9.83768 1.74755ZM2.93359 13.88L4.82794 13.2485C5.35535 13.0727 5.57943 12.9971 5.78814 12.8977C6.04183 12.7768 6.2816 12.6286 6.5032 12.4557C6.6855 12.3135 6.85334 12.1469 7.24645 11.7538L12.2928 6.7075C11.767 6.52206 11.0897 6.17834 10.4556 5.54426C9.82151 4.91017 9.47779 4.23285 9.29236 3.70708L4.24604 8.7534C3.85293 9.14651 3.68631 9.31435 3.54412 9.49665C3.37128 9.71825 3.22309 9.95802 3.10219 10.2117C3.00272 10.4204 2.92712 10.6445 2.75131 11.1719L2.11987 13.0663L2.93359 13.88ZM10.1035 2.89595C10.1263 3.01259 10.1648 3.17115 10.2291 3.3565C10.3739 3.7738 10.6474 4.32184 11.1627 4.83715C11.678 5.35246 12.2261 5.62594 12.6434 5.77072C12.8287 5.83503 12.9873 5.87356 13.1039 5.89636L13.5452 5.45507C14.3737 4.62653 14.3737 3.2832 13.5452 2.45466C12.7167 1.62612 11.3733 1.62612 10.5448 2.45466L10.1035 2.89595Z" fill="#BBBBBB"/>
</g>
<defs>
<clipPath id="clip0_164_5166">
<rect width="16" height="16" fill="white"/>
</clipPath>
</defs>
</svg>
