<svg width="20" height="20" viewBox="0 0 20 20" fill="none" xmlns="http://www.w3.org/2000/svg">
<mask id="mask0_592_5464" style="mask-type:alpha" maskUnits="userSpaceOnUse" x="0" y="0" width="20" height="20">
<rect width="20" height="20" fill="#D9D9D9"/>
</mask>
<g mask="url(#mask0_592_5464)">
<path d="M1.6665 18.3333L5.83317 6.66667L13.3332 14.1667L1.6665 18.3333ZM12.1248 10.4583L11.2498 9.58333L15.9165 4.91667C16.3609 4.47222 16.8957 4.25 17.5207 4.25C18.1457 4.25 18.6804 4.47222 19.1248 4.91667L19.6248 5.41667L18.7498 6.29167L18.2498 5.79167C18.0554 5.59722 17.8123 5.5 17.5207 5.5C17.229 5.5 16.9859 5.59722 16.7915 5.79167L12.1248 10.4583ZM8.7915 7.125L7.9165 6.25L8.4165 5.75C8.61095 5.55556 8.70817 5.31944 8.70817 5.04167C8.70817 4.76389 8.61095 4.52778 8.4165 4.33333L7.87484 3.79167L8.74984 2.91667L9.2915 3.45833C9.73595 3.90278 9.95817 4.43056 9.95817 5.04167C9.95817 5.65278 9.73595 6.18056 9.2915 6.625L8.7915 7.125ZM10.4582 8.79167L9.58317 7.91667L12.5832 4.91667C12.7776 4.72222 12.8748 4.47917 12.8748 4.1875C12.8748 3.89583 12.7776 3.65278 12.5832 3.45833L11.2498 2.125L12.1248 1.25L13.4582 2.58333C13.9026 3.02778 14.1248 3.5625 14.1248 4.1875C14.1248 4.8125 13.9026 5.34722 13.4582 5.79167L10.4582 8.79167ZM13.7915 12.125L12.9165 11.25L14.2498 9.91667C14.6943 9.47222 15.229 9.25 15.854 9.25C16.479 9.25 17.0137 9.47222 17.4582 9.91667L18.7915 11.25L17.9165 12.125L16.5832 10.7917C16.3887 10.5972 16.1457 10.5 15.854 10.5C15.5623 10.5 15.3193 10.5972 15.1248 10.7917L13.7915 12.125Z" fill="#B61818"/>
</g>
</svg>
