<svg width="21" height="20" viewBox="0 0 21 20" fill="none" xmlns="http://www.w3.org/2000/svg">
<g id="thumb_up">
<mask id="mask0_392_977" style="mask-type:alpha" maskUnits="userSpaceOnUse" x="0" y="0" width="21" height="20">
<rect id="Bounding box" x="0.913574" width="20" height="20" fill="#D9D9D9"/>
</mask>
<g mask="url(#mask0_392_977)">
<path id="thumb_up_2" d="M15.689 16.5834H6.58966V7.41675L12.2853 1.75342L12.6153 1.87509C12.8407 2.03106 13.0133 2.2255 13.133 2.45842C13.2526 2.69134 13.2846 2.93335 13.229 3.18446L13.2082 3.20842L12.4486 7.41675H18.157C18.5256 7.41675 18.841 7.54793 19.1032 7.81029C19.3656 8.07252 19.4967 8.38793 19.4967 8.75654V9.62342C19.4967 9.72384 19.489 9.81384 19.4734 9.89342C19.458 9.973 19.4295 10.0561 19.3878 10.1428L17.0192 15.719C16.9006 15.9833 16.7217 16.1935 16.4824 16.3495C16.2431 16.5054 15.9786 16.5834 15.689 16.5834ZM7.67299 15.5001H15.689C15.7478 15.5001 15.8079 15.484 15.8692 15.452C15.9308 15.4199 15.9776 15.3665 16.0097 15.2918L18.4134 9.68759V8.75654C18.4134 8.68168 18.3894 8.62022 18.3413 8.57217C18.2933 8.52411 18.2318 8.50009 18.157 8.50009H11.1603L12.1009 3.45363L7.67299 7.8655V15.5001ZM6.58966 7.41675V8.50009H3.41341V15.5001H6.58966V16.5834H2.33008V7.41675H6.58966Z" fill="#BBBBBB"/>
</g>
</g>
</svg>
