<svg width="24" height="24" viewBox="0 0 24 24" fill="none" xmlns="http://www.w3.org/2000/svg">
<g id="Property 1=off">
<mask id="mask0_184_974" style="mask-type:alpha" maskUnits="userSpaceOnUse" x="0" y="0" width="24" height="24">
<rect id="Bounding box" width="24" height="24" fill="#D9D9D9"/>
</mask>
<g mask="url(#mask0_184_974)">
<path id="back_hand" d="M12.8 23C11.4333 23 10.15 22.6875 8.94995 22.0625C7.74995 21.4375 6.76662 20.5667 5.99995 19.45L1.19995 12.4L1.67495 11.925C2.00828 11.575 2.42078 11.375 2.91245 11.325C3.40412 11.275 3.84995 11.3917 4.24995 11.675L6.99995 13.575V4C6.99995 3.71667 7.09579 3.47917 7.28745 3.2875C7.47912 3.09583 7.71662 3 7.99995 3C8.28329 3 8.52079 3.09583 8.71245 3.2875C8.90412 3.47917 8.99995 3.71667 8.99995 4V17.425L5.29995 14.85L7.67495 18.3C8.25829 19.15 8.99995 19.8125 9.89995 20.2875C10.8 20.7625 11.7666 21 12.8 21C14.5166 21 15.9791 20.3958 17.1875 19.1875C18.3958 17.9792 19 16.5167 19 14.8V5C19 4.71667 19.0958 4.47917 19.2875 4.2875C19.4791 4.09583 19.7166 4 20 4C20.2833 4 20.5208 4.09583 20.7125 4.2875C20.9041 4.47917 21 4.71667 21 5V14.8C21 17.0833 20.2041 19.0208 18.6125 20.6125C17.0208 22.2042 15.0833 23 12.8 23ZM11 12V2C11 1.71667 11.0958 1.47917 11.2875 1.2875C11.4791 1.09583 11.7166 1 12 1C12.2833 1 12.5208 1.09583 12.7125 1.2875C12.9041 1.47917 13 1.71667 13 2V12H11ZM15 12V3C15 2.71667 15.0958 2.47917 15.2875 2.2875C15.4791 2.09583 15.7166 2 16 2C16.2833 2 16.5208 2.09583 16.7125 2.2875C16.9041 2.47917 17 2.71667 17 3V12H15Z" fill="#1C1B1F"/>
</g>
</g>
</svg>
