<svg width="215" height="215" viewBox="0 0 215 215" fill="none" xmlns="http://www.w3.org/2000/svg">
<path d="M3.3576 16.7941L3.3576 198.2C3.3576 205.622 9.37378 211.638 16.7951 211.638H178.045C185.466 211.638 191.483 205.622 191.483 198.2V16.7941C191.483 9.37279 185.466 3.35661 178.045 3.35661H16.7951C9.37378 3.35661 3.3576 9.37279 3.3576 16.7941Z" fill="#3380FF" stroke="#231F20" stroke-width="2.35388" stroke-linecap="round" stroke-linejoin="round"/>
<path d="M191.483 30.2308H3.3576V77.2621H191.483V30.2308Z" fill="#B1B1B1" stroke="#231F20" stroke-width="2.35388" stroke-linecap="round" stroke-linejoin="round"/>
<path d="M3.3576 198.201H191.483C191.483 201.764 190.067 205.182 187.547 207.702C185.027 210.222 181.609 211.638 178.045 211.638H16.7951C13.2313 211.638 9.81338 210.222 7.29336 207.702C4.77334 205.182 3.3576 201.764 3.3576 198.201Z" fill="#333333" stroke="#231F20" stroke-width="2.35388" stroke-linecap="round" stroke-linejoin="round"/>
<path d="M16.795 3.3562H178.045C181.609 3.3562 185.027 4.77193 187.547 7.29195C190.067 9.81197 191.483 13.2299 191.483 16.7937V30.2312H3.35754V16.7937C3.35754 13.2299 4.77328 9.81197 7.2933 7.29195C9.81332 4.77193 13.2312 3.3562 16.795 3.3562V3.3562Z" fill="#D6DCDC" stroke="#231F20" stroke-width="2.35388" stroke-linecap="round" stroke-linejoin="round"/>
<path d="M23.5135 16.7941L23.5135 198.2C23.5135 205.622 29.5297 211.638 36.951 211.638H178.045C185.466 211.638 191.482 205.622 191.482 198.2V16.7941C191.482 9.37279 185.466 3.35661 178.045 3.35661H36.951C29.5297 3.35661 23.5135 9.37279 23.5135 16.7941Z" fill="white" stroke="#231F20" stroke-width="2.35388" stroke-linecap="round" stroke-linejoin="round"/>
<path d="M94.0604 77.2626H23.5135V198.2H94.0604V77.2626Z" fill="#33DDFF" stroke="#231F20" stroke-width="2.35388" stroke-linecap="round" stroke-linejoin="round"/>
<path d="M94.0614 157.888H191.483V77.2625L94.0614 77.2625L94.0614 157.888Z" fill="#33DDFF" stroke="#231F20" stroke-width="2.35388" stroke-linecap="round" stroke-linejoin="round"/>
<path d="M70.5444 113.097H47.0287C45.1734 113.097 43.6694 114.601 43.6694 116.457V123.175C43.6694 125.031 45.1734 126.535 47.0287 126.535H70.5444C72.3997 126.535 73.9037 125.031 73.9037 123.175V116.457C73.9037 114.601 72.3997 113.097 70.5444 113.097Z" fill="#FF8B00" stroke="#231F20" stroke-width="2.35388" stroke-linecap="round" stroke-linejoin="round"/>
<path d="M52.0684 119.814H65.5059" stroke="#FFE8CC" stroke-width="2.35388" stroke-linecap="round" stroke-linejoin="round"/>
<path d="M50.3894 113.096L58.7878 99.6585L67.1863 113.096" stroke="#231F20" stroke-width="2.35388" stroke-linecap="round" stroke-linejoin="round"/>
<path d="M156.421 151.793C159.629 151.793 162.23 149.192 162.23 145.984C162.23 142.776 159.629 140.175 156.421 140.175C153.213 140.175 150.612 142.776 150.612 145.984C150.612 149.192 153.213 151.793 156.421 151.793Z" fill="white" stroke="#C8D4FA" stroke-width="2.35388" stroke-linecap="round" stroke-linejoin="round"/>
<path d="M109.949 153.409C113.157 153.409 115.758 150.808 115.758 147.6C115.758 144.392 113.157 141.791 109.949 141.791C106.741 141.791 104.14 144.392 104.14 147.6C104.14 150.808 106.741 153.409 109.949 153.409Z" fill="#33DDFF" stroke="#3380FF" stroke-width="2.35388" stroke-linecap="round" stroke-linejoin="round"/>
<path d="M121.567 153.409C124.775 153.409 127.376 150.808 127.376 147.6C127.376 144.392 124.775 141.791 121.567 141.791C118.359 141.791 115.758 144.392 115.758 147.6C115.758 150.808 118.359 153.409 121.567 153.409Z" fill="#33DDFF" stroke="#3380FF" stroke-width="2.35388" stroke-linecap="round" stroke-linejoin="round"/>
<path d="M115.757 141.79C118.965 141.79 121.566 139.189 121.566 135.981C121.566 132.772 118.965 130.171 115.757 130.171C112.549 130.171 109.948 132.772 109.948 135.981C109.948 139.189 112.549 141.79 115.757 141.79Z" fill="#33DDFF" stroke="#3380FF" stroke-width="2.35388" stroke-linecap="round" stroke-linejoin="round"/>
<path d="M127.375 141.79C130.583 141.79 133.184 139.189 133.184 135.981C133.184 132.772 130.583 130.171 127.375 130.171C124.167 130.171 121.566 132.772 121.566 135.981C121.566 139.189 124.167 141.79 127.375 141.79Z" fill="#33DDFF" stroke="#3380FF" stroke-width="2.35388" stroke-linecap="round" stroke-linejoin="round"/>
<path d="M133.183 153.409C136.392 153.409 138.993 150.808 138.993 147.6C138.993 144.392 136.392 141.791 133.183 141.791C129.975 141.791 127.374 144.392 127.374 147.6C127.374 150.808 129.975 153.409 133.183 153.409Z" fill="#33DDFF" stroke="#3380FF" stroke-width="2.35388" stroke-linecap="round" stroke-linejoin="round"/>
<path d="M138.993 141.79C142.201 141.79 144.802 139.189 144.802 135.981C144.802 132.772 142.201 130.171 138.993 130.171C135.785 130.171 133.184 132.772 133.184 135.981C133.184 139.189 135.785 141.79 138.993 141.79Z" fill="#33DDFF" stroke="#3380FF" stroke-width="2.35388" stroke-linecap="round" stroke-linejoin="round"/>
<path d="M144.803 153.409C148.011 153.409 150.612 150.808 150.612 147.6C150.612 144.392 148.011 141.791 144.803 141.791C141.595 141.791 138.994 144.392 138.994 147.6C138.994 150.808 141.595 153.409 144.803 153.409Z" fill="#33DDFF" stroke="#3380FF" stroke-width="2.35388" stroke-linecap="round" stroke-linejoin="round"/>
<path d="M131.014 131.511V118.074" stroke="#1E9CDD" stroke-width="2.35388" stroke-linecap="round" stroke-linejoin="round"/>
<path d="M137.733 104.636H124.296C122.44 104.636 120.936 106.141 120.936 107.996V114.715C120.936 116.57 122.44 118.074 124.296 118.074H137.733C139.589 118.074 141.093 116.57 141.093 114.715V107.996C141.093 106.141 139.589 104.636 137.733 104.636Z" fill="#33DDFF" stroke="#1E9CDD" stroke-width="2.35388" stroke-linecap="round" stroke-linejoin="round"/>
<path d="M191.484 153.409H94.0618V198.201H191.484V153.409Z" fill="#FFC700" stroke="#231F20" stroke-width="2.35388" stroke-linecap="round" stroke-linejoin="round"/>
<path d="M191.482 30.2308H23.5135V77.2621H191.482V30.2308Z" fill="#D6DCDC" stroke="#231F20" stroke-width="2.35388" stroke-linecap="round" stroke-linejoin="round"/>
<path d="M178.045 63.8254H211.638V73.9036C211.638 78.3584 209.869 82.6307 206.719 85.7807C203.569 88.9308 199.296 90.7004 194.841 90.7004V90.7004C190.387 90.7004 186.114 88.9308 182.964 85.7807C179.814 82.6307 178.045 78.3584 178.045 73.9036V63.8254Z" fill="#E62234" stroke="#231F20" stroke-width="2.35388" stroke-linecap="round" stroke-linejoin="round"/>
<path d="M144.451 63.8254H178.045V73.9036C178.045 78.3584 176.276 82.6307 173.126 85.7807C169.976 88.9308 165.703 90.7004 161.248 90.7004V90.7004C156.794 90.7004 152.521 88.9308 149.371 85.7807C146.221 82.6307 144.451 78.3584 144.451 73.9036V63.8254Z" fill="#E4E4E4" stroke="#231F20" stroke-width="2.35388" stroke-linecap="round" stroke-linejoin="round"/>
<path d="M110.857 63.8254H144.451V73.9036C144.451 78.3584 142.681 82.6307 139.531 85.7807C136.381 88.9308 132.109 90.7004 127.654 90.7004C123.199 90.7004 118.927 88.9308 115.777 85.7807C112.627 82.6307 110.857 78.3584 110.857 73.9036V63.8254Z" fill="#E62234" stroke="#231F20" stroke-width="2.35388" stroke-linecap="round" stroke-linejoin="round"/>
<path d="M77.2639 63.8254H110.858V73.9036C110.858 78.3584 109.088 82.6307 105.938 85.7807C102.788 88.9308 98.5155 90.7004 94.0607 90.7004V90.7004C89.6059 90.7004 85.3336 88.9308 82.1835 85.7807C79.0335 82.6307 77.2639 78.3584 77.2639 73.9036V63.8254Z" fill="#E4E4E4" stroke="#231F20" stroke-width="2.35388" stroke-linecap="round" stroke-linejoin="round"/>
<path d="M43.6694 63.8254H77.2631V73.9036C77.2631 76.1094 76.8287 78.2936 75.9845 80.3315C75.1404 82.3693 73.9032 84.221 72.3434 85.7807C70.7837 87.3405 68.932 88.5777 66.8941 89.4219C64.8562 90.266 62.672 90.7004 60.4662 90.7004C56.0114 90.7004 51.7391 88.9308 48.5891 85.7807C45.439 82.6307 43.6694 78.3584 43.6694 73.9036V63.8254Z" fill="#E62234" stroke="#231F20" stroke-width="2.35388" stroke-linecap="round" stroke-linejoin="round"/>
<path d="M36.951 3.35632H178.045C181.609 3.35632 185.026 4.77206 187.546 7.29208C190.067 9.8121 191.482 13.23 191.482 16.7938V30.2313H23.5135V16.7938C23.5135 13.23 24.9292 9.8121 27.4492 7.29208C29.9693 4.77206 33.3871 3.35632 36.951 3.35632V3.35632Z" fill="white" stroke="#231F20" stroke-width="2.35388" stroke-linecap="round" stroke-linejoin="round"/>
<path d="M211.639 63.8246H43.6697L23.5135 30.2308H191.482L211.639 63.8246Z" fill="white" stroke="#231F20" stroke-width="2.35388" stroke-linecap="round" stroke-linejoin="round"/>
<path d="M57.1072 30.2308H23.5135L43.6697 63.8246H77.2635L57.1072 30.2308Z" fill="#FF3446" stroke="#231F20" stroke-width="2.35388" stroke-linecap="round" stroke-linejoin="round"/>
<path d="M90.7031 30.2308H57.1094L77.2656 63.8246H110.859L90.7031 30.2308Z" fill="white" stroke="#231F20" stroke-width="2.35388" stroke-linecap="round" stroke-linejoin="round"/>
<path d="M124.295 30.2308H90.7011L110.857 63.8246H144.451L124.295 30.2308Z" fill="#FF3446" stroke="#231F20" stroke-width="2.35388" stroke-linecap="round" stroke-linejoin="round"/>
<path d="M157.889 30.2308H124.296L144.452 63.8246H178.046L157.889 30.2308Z" fill="white" stroke="#231F20" stroke-width="2.35388" stroke-linecap="round" stroke-linejoin="round"/>
<path d="M191.482 30.2308H157.889L178.045 63.8246H211.639L191.482 30.2308Z" fill="#FF3446" stroke="#231F20" stroke-width="2.35388" stroke-linecap="round" stroke-linejoin="round"/>
<path d="M23.5135 198.201H211.639C211.639 201.764 210.223 205.182 207.703 207.702C205.183 210.222 201.765 211.638 198.201 211.638H36.951C33.3871 211.638 29.9693 210.222 27.4492 207.702C24.9292 205.182 23.5135 201.764 23.5135 198.201Z" fill="#666666" stroke="#231F20" stroke-width="2.35388" stroke-linecap="round" stroke-linejoin="round"/>
<path d="M40.3101 13.4357H174.685C175.576 13.4357 176.431 13.7896 177.061 14.4196C177.691 15.0496 178.044 15.9041 178.044 16.795V20.1544H36.9507V16.795C36.9507 15.9041 37.3047 15.0496 37.9347 14.4196C38.5647 13.7896 39.4192 13.4357 40.3101 13.4357V13.4357Z" fill="#E4E4E4" stroke="#E4E4E4" stroke-width="2.35388" stroke-linecap="round" stroke-linejoin="round"/>
<path d="M144.451 198.201H189.243L197.572 131.569C197.651 130.939 197.595 130.299 197.407 129.692C197.22 129.085 196.906 128.525 196.486 128.049C196.065 127.573 195.548 127.192 194.97 126.931C194.391 126.67 193.763 126.534 193.128 126.534H157.364C156.272 126.534 155.218 126.933 154.4 127.656C153.581 128.378 153.055 129.375 152.919 130.458L144.451 198.201Z" stroke="#231F20" stroke-width="2.35388" stroke-linecap="round" stroke-linejoin="round"/>
<path d="M145.851 187.003L152.919 130.458C153.055 129.375 153.581 128.378 154.4 127.656C155.218 126.933 156.272 126.534 157.364 126.534H193.128C193.763 126.534 194.391 126.67 194.969 126.931C195.548 127.192 196.065 127.573 196.485 128.049C196.906 128.525 197.22 129.085 197.407 129.692C197.595 130.299 197.651 130.939 197.572 131.569L190.643 187.003H145.851Z" fill="#054828" stroke="#231F20" stroke-width="2.35388" stroke-linecap="round" stroke-linejoin="round"/>
<path d="M207.16 198.201H162.368L154.039 131.569C153.961 130.939 154.017 130.299 154.204 129.692C154.392 129.085 154.706 128.525 155.126 128.049C155.546 127.573 156.063 127.192 156.642 126.931C157.221 126.67 157.849 126.534 158.484 126.534H194.248C195.34 126.534 196.394 126.933 197.212 127.656C198.031 128.378 198.557 129.375 198.692 130.458L207.16 198.201Z" stroke="#231F20" stroke-width="2.35388" stroke-linecap="round" stroke-linejoin="round"/>
<path d="M207.16 198.201H162.368L154.039 131.569C153.961 130.939 154.017 130.299 154.204 129.692C154.392 129.085 154.706 128.525 155.126 128.049C155.546 127.573 156.063 127.192 156.642 126.931C157.221 126.67 157.849 126.534 158.484 126.534H194.248C195.34 126.534 196.394 126.933 197.212 127.656C198.031 128.378 198.557 129.375 198.692 130.458L207.16 198.201Z" stroke="#231F20" stroke-width="2.35388" stroke-linecap="round" stroke-linejoin="round"/>
<path d="M205.76 187.003L198.692 130.458C198.557 129.375 198.031 128.378 197.212 127.656C196.394 126.933 195.34 126.534 194.248 126.534H158.484C157.849 126.534 157.221 126.67 156.642 126.931C156.063 127.192 155.546 127.573 155.126 128.049C154.706 128.525 154.392 129.085 154.204 129.692C154.017 130.299 153.961 130.939 154.039 131.569L160.969 187.003H205.76Z" fill="#21CD62" stroke="#231F20" stroke-width="2.35388" stroke-linecap="round" stroke-linejoin="round"/>
<path d="M192.602 166.846H170.486" stroke="white" stroke-width="2.35388" stroke-linecap="round" stroke-linejoin="round"/>
<path d="M183.504 137.732H172.306" stroke="white" stroke-width="2.35388" stroke-linecap="round" stroke-linejoin="round"/>
<path d="M190.363 148.93H168.247" stroke="white" stroke-width="2.35388" stroke-linecap="round" stroke-linejoin="round"/>
<path d="M191.482 157.888H169.367" stroke="white" stroke-width="2.35388" stroke-linecap="round" stroke-linejoin="round"/>
<path d="M171.607 175.805H193.722" stroke="white" stroke-width="2.35388" stroke-linecap="round" stroke-linejoin="round"/>
<path d="M80.6232 130.024C82.0431 130.024 83.405 130.588 84.409 131.592C85.4131 132.596 85.9772 133.958 85.9772 135.378V144.696C85.9772 145.399 85.8387 146.095 85.5696 146.744C85.3006 147.394 84.9062 147.984 84.409 148.481C83.9119 148.979 83.3216 149.373 82.6721 149.642C82.0225 149.911 81.3263 150.05 80.6232 150.05" stroke="#231F20" stroke-width="2.35388" stroke-linecap="round" stroke-linejoin="round"/>
<path d="M59.4838 142.102L50.0612 149.64" stroke="white" stroke-width="2.35388" stroke-linecap="round" stroke-linejoin="round"/>
<path d="M51.2272 160.128L47.8815 162.804" stroke="white" stroke-width="2.35388" stroke-linecap="round" stroke-linejoin="round"/>
<path d="M69.1851 145.762L57.1164 155.417" stroke="white" stroke-width="2.35388" stroke-linecap="round" stroke-linejoin="round"/>
<path d="M158.204 114.026L155.165 116.457" stroke="white" stroke-width="2.35388" stroke-linecap="round" stroke-linejoin="round"/>
<path d="M174.067 101.335L164.093 109.314" stroke="white" stroke-width="2.35388" stroke-linecap="round" stroke-linejoin="round"/>
</svg>
