<svg width="16" height="16" viewBox="0 0 16 16" fill="none" xmlns="http://www.w3.org/2000/svg">
<g id="fork_spoon">
<mask id="mask0_534_5221" style="mask-type:alpha" maskUnits="userSpaceOnUse" x="0" y="0" width="16" height="16">
<rect id="Bounding box" width="16" height="16" fill="#D9D9D9"/>
</mask>
<g mask="url(#mask0_534_5221)">
<path id="fork_spoon_2" d="M4 14.6668V8.56683C3.4 8.41127 2.91667 8.09461 2.55 7.61683C2.18333 7.13905 2 6.60016 2 6.00016V1.3335H3.33333V5.3335H4V1.3335H5.33333V5.3335H6V1.3335H7.33333V6.00016C7.33333 6.60016 7.15 7.13905 6.78333 7.61683C6.41667 8.09461 5.93333 8.41127 5.33333 8.56683V14.6668H4ZM10.6667 14.6668V8.31683C10.0667 8.11683 9.58333 7.69738 9.21667 7.0585C8.85 6.41961 8.66667 5.69461 8.66667 4.8835C8.66667 3.89461 8.92778 3.05572 9.45 2.36683C9.97222 1.67794 10.6 1.3335 11.3333 1.3335C12.0667 1.3335 12.6944 1.68072 13.2167 2.37516C13.7389 3.06961 14 3.91127 14 4.90016C14 5.71127 13.8167 6.4335 13.45 7.06683C13.0833 7.70016 12.6 8.11683 12 8.31683V14.6668H10.6667Z" fill="#727272"/>
</g>
</g>
</svg>
