<svg width="24" height="24" viewBox="0 0 24 24" fill="none" xmlns="http://www.w3.org/2000/svg">
<g id="Property 1=on">
<mask id="mask0_184_975" style="mask-type:alpha" maskUnits="userSpaceOnUse" x="0" y="0" width="24" height="24">
<rect id="Bounding box" width="24" height="24" fill="#D9D9D9"/>
</mask>
<g mask="url(#mask0_184_975)">
<path id="chef_hat" d="M9 14H11V9H9V14ZM5 16V12.5C4.23333 12.1167 3.625 11.5625 3.175 10.8375C2.725 10.1125 2.5 9.325 2.5 8.475C2.5 7.225 2.92917 6.16667 3.7875 5.3C4.64583 4.43333 5.7 4 6.95 4C7.15 4 7.35417 4.01667 7.5625 4.05C7.77083 4.08333 7.975 4.125 8.175 4.175C8.59167 3.49167 9.13333 2.95833 9.8 2.575C10.4667 2.19167 11.2 2 12 2C12.8 2 13.5333 2.19167 14.2 2.575C14.8667 2.95833 15.4083 3.49167 15.825 4.175C16.025 4.125 16.225 4.08333 16.425 4.05C16.625 4.01667 16.8333 4 17.05 4C18.3 4 19.3542 4.43333 20.2125 5.3C21.0708 6.16667 21.5 7.225 21.5 8.475C21.5 9.325 21.275 10.1125 20.825 10.8375C20.375 11.5625 19.7667 12.1167 19 12.5V16H5ZM13 14H15V9H13V14ZM5 22V18H19V22H5Z" fill="#1C1B1F"/>
</g>
</g>
</svg>
