<svg width="20" height="20" viewBox="0 0 20 20" fill="none" xmlns="http://www.w3.org/2000/svg">
<g id="Group 4093">
<g id="Group 4092">
<g id="Group 4091">
<g id="fork_spoon">
<mask id="mask0_539_5846" style="mask-type:alpha" maskUnits="userSpaceOnUse" x="0" y="0" width="20" height="20">
<rect id="Bounding box" width="20" height="20" fill="#D9D9D9"/>
</mask>
<g mask="url(#mask0_539_5846)">
<path id="fork_spoon_2" d="M5 18.3332V10.7082C4.25 10.5137 3.64583 10.1179 3.1875 9.52067C2.72917 8.92345 2.5 8.24984 2.5 7.49984V1.6665H4.16667V6.6665H5V1.6665H6.66667V6.6665H7.5V1.6665H9.16667V7.49984C9.16667 8.24984 8.9375 8.92345 8.47917 9.52067C8.02083 10.1179 7.41667 10.5137 6.66667 10.7082V18.3332H5ZM13.3333 18.3332V10.3957C12.5833 10.1457 11.9792 9.62137 11.5208 8.82275C11.0625 8.02414 10.8333 7.11789 10.8333 6.104C10.8333 4.86789 11.1597 3.81928 11.8125 2.95817C12.4653 2.09706 13.25 1.6665 14.1667 1.6665C15.0833 1.6665 15.8681 2.10053 16.5208 2.96859C17.1736 3.83664 17.5 4.88873 17.5 6.12484C17.5 7.13873 17.2708 8.0415 16.8125 8.83317C16.3542 9.62484 15.75 10.1457 15 10.3957V18.3332H13.3333Z" fill="#013F9F"/>
</g>
</g>
</g>
</g>
</g>
</svg>
